<?xml version="1.0" encoding="utf-8"?>
<!-- Generator: Adobe Illustrator 27.5.0, SVG Export Plug-In . SVG Version: 6.00 Build 0)  -->
<svg version="1.1" xmlns="http://www.w3.org/2000/svg" xmlns:xlink="http://www.w3.org/1999/xlink" x="0px" y="0px"
	 viewBox="0 0 1122 1122" style="enable-background:new 0 0 1122 1122;" xml:space="preserve">
<g id="Bg">
	<rect style="fill:#FFFFFF;" width="1122" height="1122"/>
</g>
<g id="object">
	<g>
		<path style="fill:#B9BABC;" d="M336.607,271.332c-0.28-4.892-4.321-4.745-4.321-4.745c-4.187,0-4.321,4.745-4.321,4.745
			c-10.324,179.969-32.911,620.093,4.321,629.466C369.519,891.424,346.932,451.301,336.607,271.332z M332.286,857.955
			c-5.058,0-9.159-32.056-9.159-71.599c0-39.542,4.101-53.278,9.159-53.278s9.159,13.736,9.159,53.278
			C341.445,825.899,337.344,857.955,332.286,857.955z"/>
		<rect x="545.628" y="327.403" style="fill:#E49B9B;" width="261.165" height="183.295"/>
		<polygon style="fill:#CECFD1;" points="863.68,534.21 806.793,510.698 806.793,327.403 863.68,303.89 		"/>
		<polygon style="fill:#CECFD1;" points="488.742,303.89 545.628,327.403 545.628,510.698 488.742,534.21 		"/>
		<g>
			<g>
				<rect x="559.643" y="327.404" style="fill:#EEBEBE;" width="11.755" height="183.292"/>
			</g>
			<g>
				<rect x="584.622" y="327.404" style="fill:#EEBEBE;" width="11.756" height="183.292"/>
			</g>
			<g>
				<rect x="609.601" y="327.404" style="fill:#EEBEBE;" width="11.755" height="183.292"/>
			</g>
			<g>
				<rect x="634.579" y="327.404" style="fill:#EEBEBE;" width="11.756" height="183.292"/>
			</g>
			<g>
				<rect x="659.557" y="327.404" style="fill:#EEBEBE;" width="11.756" height="183.292"/>
			</g>
			<g>
				<rect x="684.536" y="327.404" style="fill:#EEBEBE;" width="11.755" height="183.292"/>
			</g>
			<g>
				<rect x="709.514" y="327.404" style="fill:#EEBEBE;" width="11.756" height="183.292"/>
			</g>
			<g>
				<rect x="734.492" y="327.404" style="fill:#EEBEBE;" width="11.755" height="183.292"/>
			</g>
			<g>
				<rect x="759.47" y="327.404" style="fill:#EEBEBE;" width="11.756" height="183.292"/>
			</g>
			<g>
				<rect x="784.449" y="327.404" style="fill:#EEBEBE;" width="11.756" height="183.292"/>
			</g>
		</g>
		<g>
			<path style="fill:#E49B9B;" d="M222.507,882.531c-16.307,26.916-25.712,58.346-27.197,90.892
				c-0.728,15.969,0.173,29.648,2.757,41.824l13.799-2.93c-2.332-10.987-3.138-23.497-2.464-38.252
				c1.378-30.197,10.082-59.322,25.17-84.225c21.326-35.199,52.049-58.03,79.482-72.549c-0.289-4.989-0.55-10.147-0.782-15.477
				C273.996,821.346,242.844,848.965,222.507,882.531z"/>
			<path style="fill:#E49B9B;" d="M696.35,501.189c0.015,8.677-0.306,17.268-0.953,25.536
				c-4.467,57.122-26.18,108.062-62.791,147.312c-57.017,61.126-145.466,78.813-183.236,86.366l-4.883,0.983
				c-31.666,6.445-73.083,15.907-112.61,32.016c-2.922,1.191-5.802,2.426-8.647,3.699c0.102,5.32,0.282,10.441,0.525,15.309
				c4.65-2.21,9.163-4.199,13.446-5.944c38.446-15.668,79.033-24.935,110.098-31.258l4.837-0.971
				c39.102-7.82,130.672-26.131,190.785-90.58c38.812-41.608,61.82-95.493,66.539-155.83c0.677-8.642,1.011-17.613,0.996-26.661
				L696.35,501.189z"/>
		</g>
	</g>
</g>
</svg>
